<svg xmlns="http://www.w3.org/2000/svg" width="13.913" height="19" viewBox="0 0 13.913 19">
  <g id="bag" transform="translate(-68.546)">
    <g id="Group_1081" data-name="Group 1081" transform="translate(68.546)">
      <path id="Path_503" data-name="Path 503" d="M82.449,16.411,81.436,5.29a.593.593,0,0,0-.591-.54H79.064V3.563a3.541,3.541,0,0,0-1.041-2.521,3.565,3.565,0,0,0-6.084,2.521V4.75H70.158a.593.593,0,0,0-.591.54L68.556,16.41A2.375,2.375,0,0,0,70.921,19h9.162a2.376,2.376,0,0,0,2.367-2.589ZM77.876,4.75h-4.75V3.563a2.375,2.375,0,1,1,4.75,0Z" transform="translate(-68.546)" fill="#2b2b2b"/>
    </g>
  </g>
</svg>
