<svg id="Vector_Smart_Object" data-name="Vector Smart Object" xmlns="http://www.w3.org/2000/svg" width="24.012" height="24.012" viewBox="0 0 24.012 24.012">
  <path id="Path_41" data-name="Path 41" d="M9.61,1.034H2.75A1.716,1.716,0,0,0,1.034,2.75V9.61A1.716,1.716,0,0,0,2.75,11.325H9.61A1.716,1.716,0,0,0,11.325,9.61V2.75A1.716,1.716,0,0,0,9.61,1.034Z" transform="translate(-1.034 -1.034)" fill="#5fb597"/>
  <path id="Path_42" data-name="Path 42" d="M19.068,1.034h-6.86A1.716,1.716,0,0,0,10.493,2.75V9.61a1.716,1.716,0,0,0,1.715,1.715h6.86A1.716,1.716,0,0,0,20.783,9.61V2.75A1.716,1.716,0,0,0,19.068,1.034Z" transform="translate(3.228 -1.034)" fill="#5fb597"/>
  <path id="Path_43" data-name="Path 43" d="M19.068,10.493h-6.86a1.716,1.716,0,0,0-1.715,1.715v6.86a1.716,1.716,0,0,0,1.715,1.715h6.86a1.716,1.716,0,0,0,1.715-1.715v-6.86A1.716,1.716,0,0,0,19.068,10.493Z" transform="translate(3.228 3.228)" fill="#5fb597"/>
  <path id="Path_44" data-name="Path 44" d="M9.61,10.493H2.75a1.716,1.716,0,0,0-1.715,1.715v6.86A1.716,1.716,0,0,0,2.75,20.783H9.61a1.716,1.716,0,0,0,1.715-1.715v-6.86A1.716,1.716,0,0,0,9.61,10.493Z" transform="translate(-1.034 3.228)" fill="#5fb597"/>
</svg>
