<?xml version="1.0" standalone="no"?>
<!DOCTYPE svg PUBLIC "-//W3C//DTD SVG 20010904//EN"
 "http://www.w3.org/TR/2001/REC-SVG-20010904/DTD/svg10.dtd">
<svg version="1.0" xmlns="http://www.w3.org/2000/svg"
 width="235.000000pt" height="214.000000pt" viewBox="0 0 235.000000 214.000000"
 preserveAspectRatio="xMidYMid meet">
<metadata>
Created by potrace 1.16, written by Peter Selinger 2001-2019
</metadata>
<g transform="translate(0.000000,214.000000) scale(0.100000,-0.100000)"
fill="#000000" stroke="none">
<path d="M315 2112 c-78 -27 -138 -66 -193 -127 -59 -65 -96 -137 -111 -219
-15 -83 -15 -1325 0 -1398 29 -136 121 -253 247 -315 l76 -38 840 0 841 0 68
32 c80 38 173 122 210 191 55 102 57 120 57 823 0 425 -4 666 -11 705 -25 138
-117 257 -247 321 l-76 38 -825 2 c-764 2 -830 1 -876 -15z m265 -119 c-1 -5
-38 -87 -84 -183 l-83 -175 -136 -3 -137 -3 0 49 c0 151 113 287 257 312 63
10 183 12 183 3z m610 -2 c0 -5 -38 -88 -84 -185 l-85 -176 -240 0 c-133 0
-241 2 -241 4 0 3 21 49 46 103 25 54 63 135 85 181 l38 82 241 0 c136 0 240
-4 240 -9z m600 2 c-1 -5 -38 -87 -84 -183 l-83 -175 -236 -3 c-131 -1 -237 0
-237 2 0 3 32 71 71 153 39 81 77 163 85 181 l14 32 235 0 c129 0 235 -3 235
-7z m265 -42 c92 -51 155 -162 155 -273 l0 -48 -230 0 c-126 0 -230 2 -230 5
0 2 23 53 51 112 28 59 66 140 84 180 l34 71 43 -9 c24 -6 66 -23 93 -38z
m155 -999 c0 -601 0 -598 -68 -687 -27 -36 -57 -60 -106 -85 l-69 -35 -791 0
-791 0 -56 26 c-69 33 -127 89 -160 155 l-24 49 -3 558 -3 557 1036 0 1035 0
0 -538z"/>
<path d="M936 1208 c-14 -19 -16 -73 -16 -385 0 -500 -21 -487 356 -225 141
97 261 187 267 199 21 47 -4 71 -268 256 -211 146 -261 177 -289 177 -25 0
-39 -7 -50 -22z"/>
</g>
</svg>
