<?xml version="1.0" standalone="no"?>
<!DOCTYPE svg PUBLIC "-//W3C//DTD SVG 20010904//EN"
 "http://www.w3.org/TR/2001/REC-SVG-20010904/DTD/svg10.dtd">
<svg version="1.0" xmlns="http://www.w3.org/2000/svg"
 width="512.000000pt" height="512.000000pt" viewBox="0 0 512.000000 512.000000"
 preserveAspectRatio="xMidYMid meet">
<metadata>
Created by potrace 1.16, written by Peter Selinger 2001-2019
</metadata>
<g transform="translate(0.000000,512.000000) scale(0.100000,-0.100000)"
fill="#000000" stroke="none">
<path d="M695 3531 c-46 -19 -70 -73 -53 -121 6 -18 315 -324 831 -822 1159
-1120 1039 -1008 1087 -1008 34 0 48 7 87 43 165 148 1811 1746 1826 1771 46
79 -37 170 -121 134 -17 -7 -425 -393 -906 -858 -481 -464 -878 -846 -883
-847 -4 -1 -399 376 -878 839 -478 462 -883 849 -900 859 -32 20 -58 23 -90
10z"/>
</g>
</svg>
