<?xml version="1.0" standalone="no"?>
<!DOCTYPE svg PUBLIC "-//W3C//DTD SVG 20010904//EN"
 "http://www.w3.org/TR/2001/REC-SVG-20010904/DTD/svg10.dtd">
<svg version="1.0" xmlns="http://www.w3.org/2000/svg"
 width="256.000000pt" height="256.000000pt" viewBox="0 0 256.000000 256.000000"
 preserveAspectRatio="xMidYMid meet">
<metadata>
Created by potrace 1.16, written by Peter Selinger 2001-2019
</metadata>
<g transform="translate(0.000000,256.000000) scale(0.100000,-0.100000)"
fill="#000000" stroke="none">
<path d="M182 2287 c-47 -15 -116 -79 -141 -132 -21 -45 -21 -50 -21 -886 0
-632 3 -852 12 -883 16 -55 99 -138 154 -154 60 -17 2128 -17 2188 0 58 17
138 99 154 158 9 31 12 111 10 255 l-3 210 -27 9 c-18 6 -38 6 -55 0 l-28 -9
-5 -207 c-5 -226 -7 -233 -74 -282 -27 -21 -38 -21 -802 -24 -481 -2 -774 1
-774 7 0 21 79 201 117 266 205 351 516 538 959 576 154 13 338 3 536 -31 101
-18 115 -18 135 -5 l23 15 0 462 c0 332 -3 472 -12 502 -16 55 -99 138 -154
154 -55 16 -2142 16 -2192 -1z m2164 -133 c15 -11 37 -33 48 -48 20 -26 21
-42 24 -422 2 -222 -1 -394 -6 -394 -5 0 -55 6 -113 14 -309 42 -599 23 -839
-55 -239 -78 -467 -245 -612 -449 -65 -92 -140 -237 -184 -358 l-38 -104 -192
4 c-211 3 -219 6 -268 72 -21 27 -21 38 -24 799 -2 425 0 796 3 826 8 64 51
118 105 131 19 4 493 7 1052 7 1010 -2 1017 -2 1044 -23z"/>
<path d="M620 1931 c-86 -28 -168 -98 -211 -181 -21 -39 -24 -59 -24 -150 0
-96 3 -110 28 -158 132 -251 485 -251 613 0 39 76 45 199 13 282 -27 73 -94
148 -164 184 -41 21 -66 26 -140 29 -49 1 -101 -1 -115 -6z m222 -156 c119
-85 119 -265 0 -349 -59 -42 -151 -48 -217 -16 -88 43 -136 145 -111 239 28
108 105 164 218 159 55 -3 75 -9 110 -33z"/>
</g>
</svg>
