<?xml version="1.0" standalone="no"?>
<!DOCTYPE svg PUBLIC "-//W3C//DTD SVG 20010904//EN"
 "http://www.w3.org/TR/2001/REC-SVG-20010904/DTD/svg10.dtd">
<svg version="1.0" xmlns="http://www.w3.org/2000/svg"
 width="452.000000pt" height="452.000000pt" viewBox="0 0 452.000000 452.000000"
 preserveAspectRatio="xMidYMid meet">
<metadata>
Created by potrace 1.16, written by Peter Selinger 2001-2019
</metadata>
<g transform="translate(0.000000,452.000000) scale(0.100000,-0.100000)"
fill="#000000" stroke="none">
<path d="M520 4139 c-60 -27 -107 -74 -136 -134 l-24 -50 0 -1695 0 -1695 24
-50 c29 -60 76 -107 136 -134 45 -20 57 -21 1741 -21 l1695 0 52 26 c58 29
106 79 133 138 18 39 19 102 19 1446 l0 1405 -393 392 -392 393 -1405 0
c-1391 0 -1405 -1 -1450 -21z m562 -746 l3 -578 30 -54 c35 -63 82 -105 144
-126 66 -22 1846 -23 1911 0 61 21 112 66 146 127 l29 53 3 545 3 544 309
-309 310 -310 0 -1343 0 -1343 -25 -24 -24 -25 -241 0 -240 0 0 693 c0 769 1
757 -65 834 -19 23 -58 53 -87 67 l-52 26 -976 0 -976 0 -52 -26 c-29 -14 -68
-44 -87 -67 -66 -77 -65 -65 -65 -834 l0 -693 -240 0 -241 0 -24 25 -25 24 0
1661 0 1661 25 24 24 25 240 0 240 0 3 -577z m2078 28 l0 -549 -26 -31 -26
-31 -893 0 -893 0 -26 31 -26 31 0 549 0 549 945 0 945 0 0 -549z m51 -1454
c39 -30 39 -37 39 -736 l0 -681 -990 0 -990 0 0 681 c0 699 0 706 39 736 23
18 1879 18 1902 0z"/>
<path d="M720 815 l0 -95 95 0 95 0 0 95 0 95 -95 0 -95 0 0 -95z"/>
<path d="M3610 815 l0 -95 95 0 95 0 0 95 0 95 -95 0 -95 0 0 -95z"/>
<path d="M2555 3775 l-25 -24 0 -361 0 -361 26 -24 c26 -25 30 -25 200 -25
168 0 174 1 201 24 l28 24 0 362 0 362 -28 24 c-27 23 -33 24 -203 24 -172 0
-175 0 -199 -25z m245 -385 l0 -220 -40 0 -40 0 0 220 0 220 40 0 40 0 0 -220z"/>
</g>
</svg>
