<svg xmlns="http://www.w3.org/2000/svg" width="16.759" height="19.911" viewBox="0 0 16.759 19.911">
  <g id="bell" transform="translate(0.5 0.5)">
    <path id="Path_34" data-name="Path 34" d="M17.27,13.326A5.277,5.277,0,0,1,15.4,9.288v-2.2a5.52,5.52,0,0,0-4.728-5.453V.788a.788.788,0,0,0-1.576,0v.851A5.519,5.519,0,0,0,4.364,7.091v2.2a5.283,5.283,0,0,1-1.882,4.045,1.379,1.379,0,0,0,.9,2.426h13a1.379,1.379,0,0,0,.89-2.432Z" transform="translate(-2 0)" fill="none" stroke="#232323" stroke-width="1"/>
    <path id="Path_35" data-name="Path 35" d="M11.221,23.364A2.959,2.959,0,0,0,14.116,21H8.326A2.959,2.959,0,0,0,11.221,23.364Z" transform="translate(-3.341 -4.453)" fill="none" stroke="#232323" stroke-width="1"/>
  </g>
</svg>
