<svg xmlns="http://www.w3.org/2000/svg" width="19.576" height="18.705" viewBox="0 0 19.576 18.705">
  <g id="shopping-cart_2_" data-name="shopping-cart (2)" transform="translate(0.5 0.5)">
    <g id="Group_39" data-name="Group 39" transform="translate(11.908 13.367)">
      <g id="Group_38" data-name="Group 38" transform="translate(0 0)">
        <path id="Path_31" data-name="Path 31" d="M294.521,338.862a2.169,2.169,0,1,0,2.169,2.169A2.194,2.194,0,0,0,294.521,338.862Z" transform="translate(-292.352 -338.862)" fill="none" stroke="#242424" stroke-width="1"/>
      </g>
    </g>
    <g id="Group_41" data-name="Group 41" transform="translate(0 0)">
      <g id="Group_40" data-name="Group 40">
        <path id="Path_32" data-name="Path 32" d="M17.893,13.694c-.042,0-.1-.021-.167-.021H4.588l-.209-1.4A1.867,1.867,0,0,0,2.523,10.67H.834a.834.834,0,1,0,0,1.668H2.523a.222.222,0,0,1,.209.188l1.293,8.8a2.286,2.286,0,0,0,2.252,1.939h8.675A2.318,2.318,0,0,0,17.2,21.431l1.356-6.778A.824.824,0,0,0,17.893,13.694Z" transform="translate(0 -10.67)" fill="none" stroke="#242424" stroke-width="1"/>
      </g>
    </g>
    <g id="Group_43" data-name="Group 43" transform="translate(4.524 13.367)">
      <g id="Group_42" data-name="Group 42" transform="translate(0 0)">
        <path id="Path_33" data-name="Path 33" d="M115.305,340.927a2.156,2.156,0,0,0-2.148-2.065,2.181,2.181,0,0,0-2.085,2.252,2.137,2.137,0,0,0,2.127,2.065h.042A2.164,2.164,0,0,0,115.305,340.927Z" transform="translate(-111.07 -338.862)" fill="none" stroke="#242424" stroke-width="1"/>
      </g>
    </g>
  </g>
</svg>
