<svg xmlns="http://www.w3.org/2000/svg" width="20.151" height="19.208" viewBox="0 0 20.151 19.208">
  <g id="shopping-cart_2_" data-name="shopping-cart (2)" transform="translate(0 -10.67)">
    <g id="Group_39" data-name="Group 39" transform="translate(12.918 25.172)">
      <g id="Group_38" data-name="Group 38" transform="translate(0 0)">
        <path id="Path_31" data-name="Path 31" d="M294.7,338.862a2.353,2.353,0,1,0,2.353,2.353A2.381,2.381,0,0,0,294.7,338.862Z" transform="translate(-292.352 -338.862)" fill="#2b2b2b"/>
      </g>
    </g>
    <g id="Group_41" data-name="Group 41" transform="translate(0 10.67)">
      <g id="Group_40" data-name="Group 40" transform="translate(0 0)">
        <path id="Path_32" data-name="Path 32" d="M19.411,13.95c-.045,0-.113-.023-.181-.023H4.977l-.226-1.516A2.026,2.026,0,0,0,2.737,10.67H.9a.9.9,0,1,0,0,1.81H2.737a.241.241,0,0,1,.226.2l1.4,9.547a2.481,2.481,0,0,0,2.443,2.1h9.411a2.514,2.514,0,0,0,2.443-1.991l1.471-7.353A.894.894,0,0,0,19.411,13.95Z" transform="translate(0 -10.67)" fill="#2b2b2b"/>
      </g>
    </g>
    <g id="Group_43" data-name="Group 43" transform="translate(4.908 25.172)">
      <g id="Group_42" data-name="Group 42" transform="translate(0 0)">
        <path id="Path_33" data-name="Path 33" d="M115.665,341.1a2.339,2.339,0,0,0-2.33-2.24,2.366,2.366,0,0,0-2.262,2.443,2.319,2.319,0,0,0,2.308,2.24h.045A2.348,2.348,0,0,0,115.665,341.1Z" transform="translate(-111.07 -338.862)" fill="#2b2b2b"/>
      </g>
    </g>
  </g>
</svg>
