<svg xmlns="http://www.w3.org/2000/svg" width="15.199" height="14.488" viewBox="0 0 15.199 14.488">
  <g id="shopping-cart_2_" data-name="shopping-cart (2)" transform="translate(0 -10.67)">
    <g id="Group_39" data-name="Group 39" transform="translate(9.744 21.608)">
      <g id="Group_38" data-name="Group 38" transform="translate(0 0)">
        <path id="Path_31" data-name="Path 31" d="M294.127,338.862a1.775,1.775,0,1,0,1.775,1.775A1.8,1.8,0,0,0,294.127,338.862Z" transform="translate(-292.352 -338.862)" fill="#fff"/>
      </g>
    </g>
    <g id="Group_41" data-name="Group 41" transform="translate(0 10.67)">
      <g id="Group_40" data-name="Group 40" transform="translate(0 0)">
        <path id="Path_32" data-name="Path 32" d="M14.641,13.144c-.034,0-.085-.017-.137-.017H3.754l-.171-1.143A1.528,1.528,0,0,0,2.065,10.67H.683a.683.683,0,1,0,0,1.365H2.065a.181.181,0,0,1,.171.154l1.058,7.2a1.871,1.871,0,0,0,1.843,1.587h7.1a1.9,1.9,0,0,0,1.843-1.5l1.109-5.546A.674.674,0,0,0,14.641,13.144Z" transform="translate(0 -10.67)" fill="#fff"/>
      </g>
    </g>
    <g id="Group_43" data-name="Group 43" transform="translate(3.702 21.608)">
      <g id="Group_42" data-name="Group 42" transform="translate(0 0)">
        <path id="Path_33" data-name="Path 33" d="M114.536,340.551a1.764,1.764,0,0,0-1.758-1.689,1.785,1.785,0,0,0-1.706,1.843,1.749,1.749,0,0,0,1.741,1.689h.034A1.771,1.771,0,0,0,114.536,340.551Z" transform="translate(-111.07 -338.862)" fill="#fff"/>
      </g>
    </g>
  </g>
</svg>
