<svg version="1.0" xmlns="http://www.w3.org/2000/svg"
 width="20" height="20" viewBox="0 0 200.000000 200.000000"
 preserveAspectRatio="xMidYMid meet">
<metadata>
Created by potrace 1.16, written by Peter Selinger 2001-2019
</metadata>
<g transform="translate(0.000000,200.000000) scale(0.100000,-0.100000)"
fill="green" stroke="none">
<path d="M1690 1759 c-351 -237 -723 -617 -992 -1013 l-76 -114 -32 84 c-39
99 -96 190 -141 224 -42 30 -128 39 -179 17 -40 -16 -140 -103 -140 -121 0 -6
27 -38 61 -71 114 -112 204 -269 271 -469 22 -66 42 -122 43 -124 2 -2 43 27
92 63 48 37 105 77 126 89 28 15 49 41 79 96 168 305 357 592 526 800 103 127
370 394 469 470 40 30 72 59 73 63 0 14 -52 77 -64 77 -6 -1 -58 -32 -116 -71z"/>
</g>
</svg>
