<svg version="1.0" xmlns="http://www.w3.org/2000/svg"
 width="25" height="25" viewBox="0 0 512.000000 512.000000"
 preserveAspectRatio="xMidYMid meet">
<metadata>
Created by potrace 1.16, written by Peter Selinger 2001-2019
</metadata>
<g transform="translate(0.000000,512.000000) scale(0.100000,-0.100000)"
fill="#000000" stroke="none">
<path d="M960 4179 c-54 -22 -81 -76 -65 -131 4 -12 340 -356 746 -763 l739
-740 -731 -730 c-402 -402 -737 -742 -745 -757 -18 -35 -18 -62 2 -99 18 -36
73 -62 112 -53 18 4 259 238 769 748 l743 741 737 -737 c406 -405 750 -742
765 -747 79 -30 156 40 140 127 -3 20 -202 225 -743 767 l-739 740 740 740
740 741 0 50 c0 55 -21 87 -68 105 -62 24 -52 32 -830 -744 l-744 -742 -736
743 c-406 408 -744 742 -752 742 -8 0 -24 2 -35 5 -11 2 -31 0 -45 -6z"/>
</g>
</svg>
