<svg id="Layer_1" data-name="Layer 1"  width="20" fill="white" xmlns="http://www.w3.org/2000/svg" viewBox="0 0 25 25"><path d="M20.7,3.12H16.41V2.34A2.35,2.35,0,0,0,14.06,0H10.94A2.35,2.35,0,0,0,8.59,2.34v.78H4.3a2,2,0,0,0-2,2V6.64a.78.78,0,0,0,.78.78H21.88a.78.78,0,0,0,.78-.78V5.08A2,2,0,0,0,20.7,3.12ZM10.16,2.34a.78.78,0,0,1,.78-.78h3.12a.78.78,0,0,1,.78.78v.78H10.16Z"/><path d="M3.83,9a.26.26,0,0,0-.25.26l.65,13.53A2.33,2.33,0,0,0,6.57,25H18.43a2.33,2.33,0,0,0,2.34-2.23l.65-13.53A.26.26,0,0,0,21.17,9Zm11.79,2a.79.79,0,0,1,1.57,0V21.09a.79.79,0,1,1-1.57,0Zm-3.9,0a.78.78,0,0,1,1.56,0V21.09a.78.78,0,1,1-1.56,0Zm-3.91,0a.79.79,0,0,1,1.57,0V21.09a.79.79,0,1,1-1.57,0Z"/></svg>