<svg id="Layer_1" data-name="Layer 1" width="20" fill="white" xmlns="http://www.w3.org/2000/svg" viewBox="0 0 25 25"><path d="M19.79,12.5a1,1,0,0,0-1,1v8.33a1,1,0,0,1-1,1.05H3.12a1,1,0,0,1-1-1.05V7.29a1,1,0,0,1,1-1h8.34a1,1,0,0,0,0-2.08H3.12A3.12,3.12,0,0,0,0,7.29V21.87A3.13,3.13,0,0,0,3.12,25H17.71a3.13,3.13,0,0,0,3.12-3.13V13.54A1,1,0,0,0,19.79,12.5Z"/><path d="M9.77,11.55a.49.49,0,0,0-.15.27L8.89,15.5a.51.51,0,0,0,.51.62h.1l3.68-.73a.52.52,0,0,0,.27-.15L21.69,7,18,3.31Z"/><path d="M24.24.76a2.61,2.61,0,0,0-3.68,0L19.11,2.2,22.8,5.89l1.44-1.45a2.61,2.61,0,0,0,0-3.68Z"/></svg>