<svg xmlns="http://www.w3.org/2000/svg" width="25" height="25" viewBox="0 0 16.025 19.208">
  <g id="user" transform="translate(0 0)" opacity="0.67">
    <path id="Path_2" data-name="Path 2" d="M91.658,9.253A4.476,4.476,0,0,0,94.929,7.9a4.476,4.476,0,0,0,1.355-3.271,4.477,4.477,0,0,0-1.355-3.271,4.625,4.625,0,0,0-6.542,0,4.476,4.476,0,0,0-1.355,3.271A4.476,4.476,0,0,0,88.387,7.9,4.477,4.477,0,0,0,91.658,9.253Zm0,0" transform="translate(-83.767 0)" fill="#fff"/>
    <path id="Path_3" data-name="Path 3" d="M15.986,252.808a11.426,11.426,0,0,0-.156-1.214,9.562,9.562,0,0,0-.3-1.22,6.027,6.027,0,0,0-.5-1.138,4.3,4.3,0,0,0-.756-.986,3.335,3.335,0,0,0-1.087-.683,3.755,3.755,0,0,0-1.387-.251,1.408,1.408,0,0,0-.752.319c-.225.147-.489.317-.783.5a4.49,4.49,0,0,1-1.013.447,3.935,3.935,0,0,1-2.479,0,4.478,4.478,0,0,1-1.013-.446c-.291-.186-.555-.356-.784-.505a1.406,1.406,0,0,0-.752-.319,3.75,3.75,0,0,0-1.387.251,3.333,3.333,0,0,0-1.087.683,4.3,4.3,0,0,0-.756.986,6.039,6.039,0,0,0-.5,1.138,9.585,9.585,0,0,0-.3,1.22,11.385,11.385,0,0,0-.156,1.214c-.025.368-.038.749-.038,1.134a3.189,3.189,0,0,0,.947,2.413,3.41,3.41,0,0,0,2.441.89h9.249a3.409,3.409,0,0,0,2.441-.89,3.188,3.188,0,0,0,.947-2.413c0-.387-.013-.769-.039-1.135Zm0,0" transform="translate(0 -238.038)" fill="#fff"/>
  </g>
</svg>
