<svg xmlns="http://www.w3.org/2000/svg" width="15.151" height="13.492" viewBox="0 0 15.151 13.492">
  <g id="like" transform="translate(0.5 -29.5)">
    <g id="Group_46" data-name="Group 46" transform="translate(0 30)">
      <path id="Path_38" data-name="Path 38" d="M10.392,30a3.35,3.35,0,0,0-2.092.723A4.766,4.766,0,0,0,7.075,32.2a4.766,4.766,0,0,0-1.224-1.472A3.35,3.35,0,0,0,3.759,30,3.841,3.841,0,0,0,0,34.077c0,2.511,2.016,4.229,5.068,6.83.518.442,1.106.942,1.716,1.476a.442.442,0,0,0,.582,0c.611-.534,1.2-1.035,1.717-1.477,3.052-2.6,5.068-4.319,5.068-6.83A3.841,3.841,0,0,0,10.392,30Z" transform="translate(0 -30)" fill="none" stroke="#fff" stroke-width="1"/>
    </g>
  </g>
</svg>
