<svg xmlns="http://www.w3.org/2000/svg" width="21.522" height="19" viewBox="0 0 21.522 19">
  <g id="like" transform="translate(0 -30)">
    <g id="Group_46" data-name="Group 46" transform="translate(0 30)">
      <path id="Path_38" data-name="Path 38" d="M15.805,30a5.1,5.1,0,0,0-3.182,1.1,7.249,7.249,0,0,0-1.862,2.239A7.249,7.249,0,0,0,8.9,31.1,5.1,5.1,0,0,0,5.717,30C2.458,30,0,32.666,0,36.2c0,3.819,3.066,6.432,7.708,10.388.788.672,1.682,1.433,2.61,2.245a.673.673,0,0,0,.885,0c.929-.812,1.822-1.574,2.611-2.246,4.641-3.955,7.707-6.568,7.707-10.387C21.522,32.666,19.064,30,15.805,30Z" transform="translate(0 -30)" fill="#2b2b2b"/>
    </g>
  </g>
</svg>
