<svg xmlns="http://www.w3.org/2000/svg" width="31.526" height="38.723" viewBox="0 0 31.526 38.723">
  <g id="pdf-file" transform="translate(-44.806)">
    <path id="Path_41" data-name="Path 41" d="M120.42,298.439c0-.643-.446-1.027-1.234-1.027a2.729,2.729,0,0,0-.653.062v2.063a2.472,2.472,0,0,0,.529.04C119.9,299.578,120.42,299.154,120.42,298.439Z" transform="translate(-67.806 -273.525)" fill="#fc4f46"/>
    <path id="Path_42" data-name="Path 42" d="M194.519,297.681a3.255,3.255,0,0,0-.715.062v4.57a2.861,2.861,0,0,0,.549.032,2.165,2.165,0,0,0,2.363-2.445A2,2,0,0,0,194.519,297.681Z" transform="translate(-137.031 -273.773)" fill="#fc4f46"/>
    <path id="Path_43" data-name="Path 43" d="M66.544,0H50.991a4.127,4.127,0,0,0-4.121,4.121v15.24h-.4a1.661,1.661,0,0,0-1.661,1.661V31.094a1.66,1.66,0,0,0,1.661,1.661h.4V34.6a4.126,4.126,0,0,0,4.121,4.121H72.212a4.126,4.126,0,0,0,4.12-4.121V9.754ZM49.163,22.84A13.018,13.018,0,0,1,51.3,22.7a3.349,3.349,0,0,1,2.135.559,2.042,2.042,0,0,1,.746,1.617,2.233,2.233,0,0,1-.642,1.658,3.24,3.24,0,0,1-2.27.735,4.09,4.09,0,0,1-.539-.03v2.5H49.163ZM72.212,36.2H50.991a1.6,1.6,0,0,1-1.6-1.6V32.755H69.177a1.66,1.66,0,0,0,1.661-1.661V21.022a1.661,1.661,0,0,0-1.661-1.661H49.394V4.121a1.6,1.6,0,0,1,1.6-1.595L65.6,2.511v5.4a2.859,2.859,0,0,0,2.858,2.858l5.29-.015.06,23.848A1.6,1.6,0,0,1,72.212,36.2ZM55.187,29.7V22.84a14.225,14.225,0,0,1,2.135-.144,4.5,4.5,0,0,1,2.861.745,3.091,3.091,0,0,1,1.181,2.633A3.54,3.54,0,0,1,60.2,28.9a5.014,5.014,0,0,1-3.223.9A13.673,13.673,0,0,1,55.187,29.7ZM66.5,25.639v1.285H63.99v2.809H62.4V22.748h4.27v1.295H63.99v1.6Z" fill="#fc4f46"/>
  </g>
</svg>
