<svg id="pencil" xmlns="http://www.w3.org/2000/svg" width="13.87" height="13.856" viewBox="0 0 13.87 13.856">
  <path id="Path_53" data-name="Path 53" d="M8.565,82.473.934,90.1a.3.3,0,0,0-.079.139l-.846,3.4a.3.3,0,0,0,.291.373A.3.3,0,0,0,.372,94l3.4-.846a.3.3,0,0,0,.139-.079l7.632-7.632Zm0,0" transform="translate(0 -80.157)" fill="#fff"/>
  <path id="Path_54" data-name="Path 54" d="M338.343,1.522l-.85-.85a1.538,1.538,0,0,0-2.124,0l-1.041,1.041L337.3,4.687l1.041-1.041a1.5,1.5,0,0,0,0-2.124Zm0,0" transform="translate(-324.912 -0.246)" fill="#fff"/>
</svg>
