<svg xmlns="http://www.w3.org/2000/svg" width="27.097" height="35.344" viewBox="0 0 27.097 35.344">
  <path id="Path_789" data-name="Path 789" d="M49.138,324.812H39.712a.589.589,0,0,0-.589.589h0v1.769H31.465a.588.588,0,0,0-.589.589h0v31.809a.589.589,0,0,0,.589.589h25.92a.587.587,0,0,0,.589-.589h0V327.758a.589.589,0,0,0-.589-.589H49.727V325.4a.589.589,0,0,0-.589-.589ZM40.3,325.99h8.247v3.535H40.3Zm16.5,2.357v30.631H32.054V328.347h7.069v1.767a.589.589,0,0,0,.589.589h9.426a.589.589,0,0,0,.589-.589h0v-1.767Z" transform="translate(-30.876 -324.812)" fill="#fff"/>
</svg>
