<svg xmlns="http://www.w3.org/2000/svg" width="15.221" height="20.295" viewBox="0 0 15.221 20.295">
  <g id="shopping-list" transform="translate(-64)">
    <g id="Group_12" data-name="Group 12" transform="translate(67.805)">
      <g id="Group_11" data-name="Group 11">
        <path id="Path_19" data-name="Path 19" d="M166.976,1.268H165.6a1.9,1.9,0,0,0-3.588,0h-1.376A.634.634,0,0,0,160,1.9V4.439a.634.634,0,0,0,.634.634h6.342a.634.634,0,0,0,.634-.634V1.9A.634.634,0,0,0,166.976,1.268Z" transform="translate(-160)" fill="#2b2b2b"/>
      </g>
    </g>
    <g id="Group_14" data-name="Group 14" transform="translate(64 2.537)">
      <g id="Group_13" data-name="Group 13" transform="translate(0)">
        <path id="Path_20" data-name="Path 20" d="M77.953,64H76.684v1.9a1.9,1.9,0,0,1-1.9,1.9H68.439a1.9,1.9,0,0,1-1.9-1.9V64H65.268A1.271,1.271,0,0,0,64,65.268V80.489a1.255,1.255,0,0,0,1.268,1.268H77.953a1.255,1.255,0,0,0,1.268-1.268V65.268A1.255,1.255,0,0,0,77.953,64ZM71.425,75.231l-2.537,2.537a.637.637,0,0,1-.9,0L66.722,76.5a.634.634,0,0,1,.9-.9l.821.819,2.088-2.088a.635.635,0,0,1,.9.9Zm0-5.074-2.537,2.537a.637.637,0,0,1-.9,0l-1.268-1.268a.634.634,0,0,1,.9-.9l.821.819,2.088-2.088a.635.635,0,0,1,.9.9Zm4.625,6.527H73.513a.634.634,0,0,1,0-1.268H76.05a.634.634,0,0,1,0,1.268Zm0-5.074H73.513a.634.634,0,0,1,0-1.268H76.05a.634.634,0,0,1,0,1.268Z" transform="translate(-64 -64)" fill="#2b2b2b"/>
      </g>
    </g>
  </g>
</svg>
