<svg id="Layer_1" data-name="Layer 1" xmlns="http://www.w3.org/2000/svg" viewBox="0 0 356.04 42">
<defs>
<style>.cls-1{stroke:#000;stroke-width:0.25px;}.cls-1,.cls-3{stroke-miterlimit:10;}.cls-2,.cls-3{fill:none;}.cls-3{stroke-width:2px;}
</style>
</defs>
<line class="cls-3" x1="44.68" y1="39.81" x2="44.68" y2="2.19" stroke="red" transform="translate(-15)"/>
<line class="cls-3" x1="44.68" y1="39.81" x2="44.68" y2="2.19" stroke="blue" transform="translate(15)"/>
<line class="cls-3" x1="44.68" y1="39.81" x2="44.68" y2="2.19" stroke="purple" transform="translate(44)"/>
<line class="cls-3" x1="44.68" y1="39.81" x2="44.68" y2="2.19" stroke="purple" transform="translate(64)"/>
<line class="cls-3" x1="44.68" y1="39.81" x2="44.68" y2="2.19" stroke="purple" transform="translate(84)"/>
<line class="cls-3" x1="44.68" y1="39.81" x2="44.68" y2="2.19" stroke="yellow" transform="translate(103)"/>
<line class="cls-3" x1="44.68" y1="39.81" x2="44.68" y2="2.19" stroke="purple" transform="translate(118)"/>
<line class="cls-3" x1="44.68" y1="39.81" x2="44.68" y2="2.19" stroke="blue" transform="translate(134)"/>
<line class="cls-3" x1="44.68" y1="39.81" x2="44.68" y2="2.19" stroke="purple" transform="translate(149)"/>
<line class="cls-3" x1="44.68" y1="39.81" x2="44.68" y2="2.19" stroke="purple" transform="translate(164)"/>
<line class="cls-3" x1="44.68" y1="39.81" x2="44.68" y2="2.19" stroke="red" transform="translate(183.5)"/>
<line class="cls-3" x1="44.68" y1="39.81" x2="44.68" y2="2.19" stroke="purple" transform="translate(203)"/>
<line class="cls-3" x1="44.68" y1="39.81" x2="44.68" y2="2.19" stroke="yellow" transform="translate(223)"/>
<line class="cls-3" x1="44.68" y1="39.81" x2="44.68" y2="2.19" stroke="purple" transform="translate(252)"/>
<line class="cls-3" x1="44.68" y1="39.81" x2="44.68" y2="2.19" stroke="green" transform="translate(282)"/>
<path class="cls-1" d="M72.37,30.82c-4.76,0-8-2.31-10-6.39a23.28,23.28,0,0,1-2.27-7.56,8.79,8.79,0,0,1,.08-2.35,2.36,2.36,0,0,1,1.39-1.92c2-.86,3.92-1.7,5.9-2.49a4.68,4.68,0,0,1,4.26.28,6.73,6.73,0,0,0,3.69.83v-.68a6.31,6.31,0,0,1-3.87-.9,4.44,4.44,0,0,0-3.89-.22C66,10,64.42,10.7,62.79,11.34S59.62,12.8,59.44,15a8,8,0,0,0-.83-1.78c-1.89-2.24-4.23-3.69-7.32-3.2-1.74.27-3.42.94-5.14,1.35a2.72,2.72,0,0,1-1.47-.08v.72A2.8,2.8,0,0,0,46.57,12a41.42,41.42,0,0,1,4.64-1.29c2.86-.52,5.07.79,6.79,2.84,1,1.26,1,2.93.81,4.49A19.62,19.62,0,0,1,55,27.83a7,7,0,0,1-2.76,2.39,18.53,18.53,0,0,1-4.1.83h0C46.9,31,45.75,31,44.68,31v.63c.62,0,1.25,0,1.88,0a36.33,36.33,0,0,0,4.89-.37,6.33,6.33,0,0,0,3.91-2.75,21.3,21.3,0,0,0,4-9.42c.06-.31.12-.62.17-.9.69,2,1.23,4.11,2.08,6.05,1.82,4.16,4.94,6.91,9.71,7.15,1.38.08,2.76.09,4.14.06v-.65Z"/>
<path class="cls-1" d="M154.65,33l-.24,0c-2,.42-3-.83-3.47-2.33a53.89,53.89,0,0,1-1.81-7.18c-.62-3.4-1-6.83-1.44-10.26a12.16,12.16,0,0,1,.21-3.56,2.45,2.45,0,0,1,2.38-2.07c1.49-.08,3,0,4.49.06l.58,0V7l-.91,0c-1,0-2.06-.16-3.09-.16-2.58,0-3.91,1.14-4.31,3.63-.11.73-.1,1.47-.14,2.18-1-.72-2-1.4-3-2.1s-2-1.46-3-2.17a5.74,5.74,0,0,0-2.94-1.08V8a5.42,5.42,0,0,1,2.66.95c1.51,1.16,3.11,2.21,4.69,3.28A3.75,3.75,0,0,1,147,15a30.7,30.7,0,0,1-2.12,15.93,18.34,18.34,0,0,1-2,3.11A4.92,4.92,0,0,1,138.13,36h-.24v.63h.36a5.47,5.47,0,0,0,5-1.91,23.05,23.05,0,0,0,1.54-2.13,21.65,21.65,0,0,0,2.8-9.07c.11-.81.2-1.63.3-2.45.35,1.11.49,2.22.75,3.3.54,2.24,1.08,4.49,1.76,6.7a3.24,3.24,0,0,0,2.2,2.41,13.5,13.5,0,0,0,2.77.2v-.52A4.33,4.33,0,0,1,154.65,33Z"/>
<path class="cls-1" d="M116.3,33.06A4.35,4.35,0,0,1,112,30.55a21.62,21.62,0,0,1-1.61-4.77c-.56-2.74-.92-5.52-1.32-8.29a9.18,9.18,0,0,1,0-2,4,4,0,0,1,1.7-3.29c1.13-.78,2.14-1.74,3.27-2.54a5.27,5.27,0,0,1,4.36-.63V8.33a5.2,5.2,0,0,0-3.63.34c-2.62,1.51-5.56,2.91-6.33,6.28,0,0-.05,0-.13,0-.06-.22-.11-.44-.15-.67a2.2,2.2,0,0,0-1.78-2,14.15,14.15,0,0,1-5.57-3,5.22,5.22,0,0,0-2.74-1v.59a5.17,5.17,0,0,1,2.31.88,16.65,16.65,0,0,0,5.81,3.1,1.7,1.7,0,0,1,1.36,1.57c.21,1.92.47,3.83.71,5.75h0a23.83,23.83,0,0,1-2.17,9.36.3.3,0,0,0,0,.08,4.78,4.78,0,0,1-5,3.47l-3,0v.63l1.84,0c.64,0,1.28-.09,1.92-.09,2.4,0,3.75-1.36,4.61-3.36a20.71,20.71,0,0,0,1.09-2.73c.52-1.85.94-3.72,1.35-5.43.21.95.41,2.11.73,3.23a36.67,36.67,0,0,0,1.68,5.27,5.1,5.1,0,0,0,4.84,3.06l2.27,0V33C117.75,33,117,33.05,116.3,33.06Z"/>
<path class="cls-1" d="M136.71,35.94a5.46,5.46,0,0,1-5-2.54,13.77,13.77,0,0,1-2.13-6.13c-.41-3.11-.72-6.22-1.09-9.49h0c.11-1.2.21-2.52.38-3.84A2.68,2.68,0,0,1,130.14,12q2.07-1.39,4-3A5.48,5.48,0,0,1,137.89,8V7.31a5.78,5.78,0,0,0-4.1,1.24c-1.35,1-2.67,2-4.06,3a3.53,3.53,0,0,0-1.51,2.26c-.1.42-.16.84-.24,1.26,0-2.06-1.48-2.65-3.12-3.21a18.92,18.92,0,0,1-3-1.53c-.62-.36-1.15-.87-1.76-1.25a5.33,5.33,0,0,0-1.62-.76v.74a5.38,5.38,0,0,1,1.44.67,16.91,16.91,0,0,0,5.88,3.15,1.67,1.67,0,0,1,1.34,1.57c.23,1.92.49,3.83.73,5.75h0a23.38,23.38,0,0,1-2.33,9.65,10,10,0,0,1-1.1,1.83,2.48,2.48,0,0,1-2.15,1.15c-1.27,0-2.54.07-3.81.14v.74l1.23,0c.58,0,1.16-.1,1.75-.1,2.4,0,3.73-1.38,4.61-3.37a14.08,14.08,0,0,0,.64-1.5c.6-2,1.17-4,1.69-5.73.14,1.11.31,2.48.49,3.86a16.23,16.23,0,0,0,2,6.36,6.23,6.23,0,0,0,6.07,3.29c.32,0,.65,0,1,0V36A11.62,11.62,0,0,0,136.71,35.94Z"/>
<path class="cls-1" d="M96.28,33a4.57,4.57,0,0,1-3.76-2.4,14.8,14.8,0,0,1-1.69-5,38.35,38.35,0,0,1-1.27-9c0-.46,0-.92.08-1.38a4,4,0,0,1,1.8-3.08c1-.72,2-1.6,3-2.34a5.25,5.25,0,0,1,3.7-.89V8.32a5.76,5.76,0,0,0-4.08.95,31.44,31.44,0,0,1-2.66,2.1A5,5,0,0,0,89,15.1s-.08.06,0,0a10.43,10.43,0,0,0-1.24-2.33,7.88,7.88,0,0,0-6.18-2.92,22.17,22.17,0,0,0-3.9.34,17.57,17.57,0,0,1-2.21.32v.68A7,7,0,0,0,76.85,11a21.71,21.71,0,0,1,5-.45H82A6.43,6.43,0,0,1,88.39,17c0,.21,0,.43,0,.65h0a26.48,26.48,0,0,1-1.58,8.4c-1.1,3-3.69,4.19-6.72,4.45-1.55.13-3.11.2-4.67.24v.65c1.78,0,3.56-.16,5.33-.37,3.83-.46,6.43-2.56,7.18-6.47.33-1.73.74-3.45,1-4.91.51,2.48,1,5.21,1.65,7.91A14,14,0,0,0,92.1,31.1a5.1,5.1,0,0,0,4.63,2.59l1.41,0v-.63Z"/>
<path class="cls-1" d="M158,7c-.89.06-1.78,0-2.67,0v.65c.81,0,1.61,0,2.41,0,2.64-.24,4,.92,4.07,3.51,0,.63,0,1.26,0,1.88h0a82.19,82.19,0,0,1-1.55,14.42,19.12,19.12,0,0,1-1.41,3.56,3.79,3.79,0,0,1-3.52,2.08v.52a9.46,9.46,0,0,0,1.07-.06c1.7-.12,2.62-1.34,3.26-2.71a15.11,15.11,0,0,0,1.25-3.36A78.82,78.82,0,0,0,162.45,11C162.43,8.32,160.7,6.86,158,7Z"/>
<path class="cls-1" d="M168.81,32.87a3.47,3.47,0,0,1-1.76-1.93,39.26,39.26,0,0,1-1.7-6.11c-.66-3.64-1.15-7.32-1.65-11a15.23,15.23,0,0,1-.08-3c.12-2.16,1.32-3.27,3.51-3.36.61,0,1.23,0,1.84.07l1.84.06V7L169,6.93c-.64,0-1.29-.09-1.92-.06a3.72,3.72,0,0,0-3.95,3.36A6.2,6.2,0,0,0,163,12.1c.45,3.73.86,7.46,1.47,11.17a51.51,51.51,0,0,0,1.71,7.22,4.08,4.08,0,0,0,4.33,3.25h.32v-.62A9,9,0,0,1,168.81,32.87Z"/>
<path class="cls-1" d="M184.25,32.84c-1,0-1.46-.7-1.93-1.37a11.88,11.88,0,0,1-2-5.32c-.53-4.27-1-8.55-1.43-12.82l.21,0h0c0-.87,0-1.74,0-2.61,0-.12,0-.25,0-.37a3,3,0,0,1,3.27-2.69c1.23,0,2.46-.06,3.7-.1V6.93L182.4,7a3.56,3.56,0,0,0-3.63,2.36l-.34.86c-.66-2.39-2-3.29-4.31-3.21-1.1,0-2.21,0-3.31,0V7.6c1.08,0,2.16.07,3.24,0,2.32-.08,3.66,1,3.76,3.27.05,1,0,2,0,3l.2,0h0c-.56,4.43-1.07,8.86-1.7,13.27a12.36,12.36,0,0,1-1.07,3.08c-.59,1.36-1.43,2.58-3.11,2.71a8.54,8.54,0,0,1-1.34.09v.62c2.82-.07,3.95-1,4.95-2.95a17.61,17.61,0,0,0,1.73-6.19c.38-3.35.69-6.7,1-9.42.32,2.93.66,6.51,1.1,10.08A13.53,13.53,0,0,0,182,32.09a4.5,4.5,0,0,0,1.57,1.27,7.71,7.71,0,0,0,2.52.43V33A14.56,14.56,0,0,0,184.25,32.84Z"/>
<path class="cls-1" d="M199.51,32.79a3.06,3.06,0,0,1-1.55-.93,10.49,10.49,0,0,1-2.23-5.39c-.57-4.21-1-8.43-1.48-12.65l.2,0h0c0-1.09-.09-2.18,0-3.26a2.18,2.18,0,0,1,0-.25,3,3,0,0,1,3.26-2.64l3.37-.09V7c-1,0-2,.06-3,0a3.74,3.74,0,0,0-4,2.39c-.06.14-.15.27-.28.52A3.77,3.77,0,0,0,190,6.86c-.44,0-.89,0-1.34,0l-2.52.07v.61l2.62-.07c3.34-.12,4.8,1.12,4.56,4.39-.26,3.6-.8,7.19-1.35,10.77-.34,2.25-.86,4.49-1.42,6.7a9.19,9.19,0,0,1-1.22,2.57,2.31,2.31,0,0,1-2.54,1.15c-.22,0-.44-.06-.65-.08v.82a7.56,7.56,0,0,0,1.57-.12,3.06,3.06,0,0,0,2.62-2.15,36.29,36.29,0,0,0,1.7-5.61c.72-3.62,1.25-7.29,1.85-10.86,0,.06,0,.22,0,.38.34,3.38.62,6.78,1,10.15a13.52,13.52,0,0,0,2.36,6.48,2.86,2.86,0,0,0,2.13,1.41l1.68.11V33A8.43,8.43,0,0,1,199.51,32.79Z"/>
<path class="cls-1" d="M218.23,36.23a5.26,5.26,0,0,1-5.16-2.11,17.9,17.9,0,0,1-3.38-7.82,33.25,33.25,0,0,1-.48-11.21,3.38,3.38,0,0,1,1.44-2.37c1.86-1.3,3.66-2.68,5.6-3.85a4.67,4.67,0,0,1,2.51-.76V7.55a5.81,5.81,0,0,0-3.49,1.18c-2,1.38-4,2.79-6,4.25,0-.77,0-1.49,0-2.21v-.31a3.84,3.84,0,0,0-4.05-3.6c-.61,0-1.22,0-1.84,0L201.11,7v.58l2.95-.08c3.36-.12,4.8,1.09,4.54,4.38-.29,3.85-.87,7.68-1.45,11.5a55.88,55.88,0,0,1-1.41,6.28,8.7,8.7,0,0,1-1.31,2.53,2.15,2.15,0,0,1-2.26.9,9.28,9.28,0,0,0-1.06-.1v.61c.34,0,.68.05,1,.1A2.8,2.8,0,0,0,205,32.46a9.44,9.44,0,0,0,1.37-2.68c.55-2,.93-4,1.36-6,.19-.86.33-1.74.49-2.6.3,1.53.49,3,.72,4.54a18.7,18.7,0,0,0,3.78,9,5.81,5.81,0,0,0,5.52,2.15c.17,0,.34,0,.5,0v-.62A3.17,3.17,0,0,0,218.23,36.23Z"/>
<path class="cls-1" d="M253,32.46a2.14,2.14,0,0,1-1.25-.73,11.17,11.17,0,0,1-1.47-2.25,23.35,23.35,0,0,1-1.46-15.72,1.58,1.58,0,0,1,.91-1c2.51-.72,4.53-2.24,6.69-3.59a4.44,4.44,0,0,1,.65-.34V8.21a6.33,6.33,0,0,0-2.07,1,11.07,11.07,0,0,1-4.7,2.54A2.61,2.61,0,0,0,248,14.35a4.16,4.16,0,0,1-.21.71A4.46,4.46,0,0,0,246.48,12c-1.13-.93-2.33-1.79-3.41-2.77a6.23,6.23,0,0,0-5.37-1.05v.55a4.72,4.72,0,0,1,4.14.48,30,30,0,0,1,4.34,3.44,3.54,3.54,0,0,1,.85,2,23.86,23.86,0,0,1-.72,8.82c-.34,1.57-.65,3.15-1.13,4.68a10.55,10.55,0,0,1-1.4,2.76,4.4,4.4,0,0,1-3.88,1.86l-2.2,0v.55c.52,0,1,0,1.55,0,2.83.13,4.74-.84,5.88-3.38a28.77,28.77,0,0,0,1.39-4.52c.35-1.28.59-2.58.87-3.87.18.73.22,1.44.35,2.13a21.61,21.61,0,0,0,2.72,7.5A3.35,3.35,0,0,0,252.67,33c1.37.21,2.76.25,4.14.33H257v-.56C255.67,32.71,254.31,32.63,253,32.46Z"/>
<path class="cls-1" d="M237,32.76a13.93,13.93,0,0,1-3.7-.37,4,4,0,0,1-1.94-1.77,19.16,19.16,0,0,1-2.53-7.13c-.2-1.2-.23-2.44-.36-4h0c.2-1.57.46-3.49.68-5.4a1.58,1.58,0,0,1,1.23-1.48,20.32,20.32,0,0,0,6.18-3.29,4.48,4.48,0,0,1,1.15-.59V8.16a5.89,5.89,0,0,0-2.12,1,12.5,12.5,0,0,1-5.07,2.72,2.47,2.47,0,0,0-2,2.38,9.73,9.73,0,0,1-.24,1.07c-.25-1.34-.4-2.54-1.51-3.33-1.44-1-2.85-2.1-4.27-3.15a5.83,5.83,0,0,0-3.69-1.3v.56a4.61,4.61,0,0,1,2.62.79,48.71,48.71,0,0,1,5.12,3.79,3.85,3.85,0,0,1,.95,2.18,27.78,27.78,0,0,1,.24,3.41l.12,0h0c-.55,3.85-1,7.72-1.71,11.54A12,12,0,0,1,224.22,34a5.1,5.1,0,0,1-5,2.21,3.7,3.7,0,0,0-.47,0v.62c.17,0,.33,0,.5,0a5.8,5.8,0,0,0,5.24-2.15,10.54,10.54,0,0,0,1.78-3.19,50.19,50.19,0,0,0,1.19-5.41c.11-.57.14-1.14.21-1.71s.15-1.06.24-1.7c.11.17.16.21.16.26s.06.37.09.56a21.6,21.6,0,0,0,2.88,7.87,3.45,3.45,0,0,0,2.22,1.74,11.83,11.83,0,0,0,2.06.25c.79,0,1.58,0,2.37,0v-.55C237.46,32.76,237.22,32.77,237,32.76Z"/>
<path class="cls-2" d="M353.69,13.1c-1.24-1-2.58-1.8-3.9-2.67a3.36,3.36,0,0,0-3-.4c-1.79.6-3.58,1.19-5.32,1.9a5,5,0,0,1-4.34-.14c-.47-.24-.92-.51-1.38-.77a3.62,3.62,0,0,0-3.21-.39,41,41,0,0,0-4.2,1.95A2.58,2.58,0,0,0,326.93,15a10,10,0,0,0,.13,2.84c.64,2.48,1.46,4.91,2.16,7.37a6.92,6.92,0,0,0,6,5.19c2.13.34,4.31.35,6.46.51h0l0-.14c.47,0,.94,0,1.42,0a10.52,10.52,0,0,0,10.47-6.55,30.49,30.49,0,0,0,1.67-5.54C355.67,16.59,355.56,14.53,353.69,13.1Z"/>
<path class="cls-1" d="M354.18,12.68c-1.34-1-2.76-1.93-4.18-2.84a3.73,3.73,0,0,0-3.29-.43c-1.84.6-3.68,1.21-5.48,1.94a4.4,4.4,0,0,1-3.92-.15c-.44-.24-.86-.5-1.3-.74a4.42,4.42,0,0,0-3.7-.42c-2.52.88-5.22,1.57-6.12,4.67a5.33,5.33,0,0,0-2.51-2.66c-1.15-.67-2.27-1.38-3.37-2.13a3.47,3.47,0,0,0-3.16-.52c-1.85.6-3.7,1.2-5.49,1.94l-.1,0V12l.26-.1c1.77-.72,3.59-1.32,5.4-1.93a3,3,0,0,1,2.77.45,39.7,39.7,0,0,0,3.51,2.2A4.27,4.27,0,0,1,325.88,17a18,18,0,0,1-3.07,9.21,10.07,10.07,0,0,1-9.11,4.51l-1.17,0h-.41l0,.17-.54,0v.49c.94,0,1.87,0,2.8,0a10.62,10.62,0,0,0,8.15-3.69,16.58,16.58,0,0,0,3.41-7c.18-.65.33-1.3.52-2.09.75,2.33,1.51,4.47,2.13,6.66A7.54,7.54,0,0,0,335.36,31c2.63.33,5.31.26,8,.35a10.66,10.66,0,0,0,9.45-4.57A17.87,17.87,0,0,0,356,17.2,5,5,0,0,0,354.18,12.68Zm1.09,5.94a30.49,30.49,0,0,1-1.67,5.54,10.52,10.52,0,0,1-10.47,6.55c-.48,0-.95,0-1.42,0l0,.14h0c-2.15-.16-4.33-.17-6.46-.51a6.92,6.92,0,0,1-6-5.19c-.7-2.46-1.52-4.89-2.16-7.37a10,10,0,0,1-.13-2.84,2.58,2.58,0,0,1,1.38-2.37,41,41,0,0,1,4.2-1.95,3.62,3.62,0,0,1,3.21.39c.46.26.91.53,1.38.77a5,5,0,0,0,4.34.14c1.74-.71,3.53-1.3,5.32-1.9a3.36,3.36,0,0,1,3,.4c1.32.87,2.66,1.71,3.9,2.67C355.56,14.53,355.67,16.59,355.27,18.62Z"/>
<path class="cls-1" d="M305.73,30.37a7,7,0,0,1-6.13-5.27c-.68-2.44-1.46-4.85-2.15-7.28a7.88,7.88,0,0,1-.2-1.87A3.73,3.73,0,0,1,299.53,12c1.06-.47,2.11-1,3.21-1.36a3.91,3.91,0,0,1,3.44.37c.46.27.91.54,1.38.77a4.94,4.94,0,0,0,4,.22v-.66a4.44,4.44,0,0,1-3.89-.21c-.35-.18-.68-.38-1-.57-2.71-1.52-8.27.18-9.64,2.94l-.18.3a4,4,0,0,0-2.55-2.26c-1-.44-2.1-.87-3.12-1.38a7.82,7.82,0,0,0-7.94.17,2.84,2.84,0,0,1-1.49.25v.64a2.77,2.77,0,0,0,1.63-.26,7.44,7.44,0,0,1,7.76-.14c1.08.55,2.21,1,3.34,1.48a3,3,0,0,1,2,3,14.5,14.5,0,0,1-.4,3.47,45.11,45.11,0,0,1-1.65,5.05,10.63,10.63,0,0,1-11.27,6.9,11.51,11.51,0,0,0-1.43.07v.58h.19c.47,0,.95-.06,1.42,0a11,11,0,0,0,9.88-4.22c1.88-2.3,2.57-5.1,3.42-7.83.06-.21.13-.41.23-.69.73,2.28,1.49,4.41,2.11,6.58A7.46,7.46,0,0,0,305.71,31q2.93.29,5.85.34v-.49C309.61,30.7,307.65,30.66,305.73,30.37Z"/>
<path class="cls-1" d="M265.91,11.94c-1-.95-2.13-1.68-3.12-2.59A6.26,6.26,0,0,0,257,8.21v.58a4.57,4.57,0,0,1,4.34.4,30,30,0,0,1,4.34,3.44,4,4,0,0,1,.88,2.22,24.14,24.14,0,0,1-.73,8.5c-.34,1.57-.66,3.14-1.12,4.68a9.76,9.76,0,0,1-1.18,2.51,4.56,4.56,0,0,1-4.46,2.17c-.5,0-1,0-1.5,0l0,.14h0l-.55,0v.56c.64,0,1.3-.08,2,0a5.36,5.36,0,0,0,5.31-2.72,9.39,9.39,0,0,0,1.12-2.53c.62-2.65,1.18-5.32,1.68-8a13.63,13.63,0,0,0,0-6.16A4.65,4.65,0,0,0,265.91,11.94Z"/>
<path class="cls-1" d="M281.51,30.82a52.93,52.93,0,0,1-6.77-.64,6.62,6.62,0,0,1-5.42-5.36c-.62-2.74-1.36-5.45-1.11-8.29a6.45,6.45,0,0,1,6.21-6c.39,0,.78,0,1.17-.07v-.1c2,.31,4.06.65,6.1.9h0v-.64h-.17a33.39,33.39,0,0,0-7.46-.7,7.17,7.17,0,0,0-6.52,6.35A27.55,27.55,0,0,0,268.71,25a7.2,7.2,0,0,0,5.87,5.81,57.17,57.17,0,0,0,7.16.62v-.58Z"/>
<path class="cls-2" d="M26.14,11.76c-.29-.15-.6-.28-.9-.43a5.64,5.64,0,0,0-6.2.23,4.88,4.88,0,0,1-5,.27C12.41,11.11,10.68,10.58,9,10a2.51,2.51,0,0,0-2.68.57,15.43,15.43,0,0,1-3,2.09A5.17,5.17,0,0,0,.58,18h0L.36,18c.5,1.83.89,3.7,1.53,5.48a10.67,10.67,0,0,0,11,7.22c2.19-.08,4.38-.14,6.57-.2a7.45,7.45,0,0,0,7.09-5.33c.36-1.2.8-2.38,1.14-3.58A45.29,45.29,0,0,0,28.84,17C29.3,14.33,28.59,13.05,26.14,11.76Z"/>
<polygon class="cls-2" points="29.61 17.07 29.61 17.05 29.6 17.07 29.6 17.08 29.61 17.07"/>
<path class="cls-1" d="M40.24,30.67a11.24,11.24,0,0,1-7.92-5,12.86,12.86,0,0,1-1.89-6.2,17.69,17.69,0,0,1,.16-4,3.73,3.73,0,0,1,2.32-2.89c1.63-.77,3.22-1.62,4.79-2.49A2.76,2.76,0,0,1,40.54,10c1.19.63,2.45,1.17,3.63,1.82a2.25,2.25,0,0,0,.51.2v-.72l-.1,0A39.48,39.48,0,0,1,41,9.55a3.62,3.62,0,0,0-3.79.08c-1.51.87-3.06,1.67-4.63,2.42a4.48,4.48,0,0,0-2.52,2.89c-.19.7-.31,1.42-.46,2.13h0v0c.1,1.21.14,2.43.33,3.63.52,3.3,1.74,6.23,4.66,8.26a13.53,13.53,0,0,0,8.12,2.55c.65,0,1.3,0,2,.06V31A40.8,40.8,0,0,1,40.24,30.67Z"/>
<path class="cls-1" d="M29.6,17.08h0a7.87,7.87,0,0,0-.07-1.61,6.18,6.18,0,0,0-1-2.7,10.71,10.71,0,0,0-5.63-2.84c-1.65-.36-3,.4-4.3,1.17a4.42,4.42,0,0,1-4.22.21c-1.78-.75-3.63-1.34-5.48-1.92a3,3,0,0,0-3,.68,25.69,25.69,0,0,1-3.32,2.33A5.28,5.28,0,0,0,0,16.62a15.93,15.93,0,0,0,1.57,7.77,11.24,11.24,0,0,0,11.06,7c2.28-.07,4.55-.15,6.83-.21A8,8,0,0,0,26.92,26c.73-2.14,1.4-4.3,2.06-6.46.25-.82.42-1.66.63-2.49h0ZM28.84,17a45.29,45.29,0,0,1-1.15,4.59c-.34,1.2-.78,2.38-1.14,3.58a7.45,7.45,0,0,1-7.09,5.33c-2.19.06-4.38.12-6.57.2a10.67,10.67,0,0,1-11-7.22C1.25,21.71.86,19.84.36,18L.58,18h0a5.17,5.17,0,0,1,2.74-5.27,15.43,15.43,0,0,0,3-2.09A2.51,2.51,0,0,1,9,10c1.71.56,3.44,1.09,5.08,1.81a4.88,4.88,0,0,0,5-.27,5.64,5.64,0,0,1,6.2-.23c.3.15.61.28.9.43C28.59,13.05,29.3,14.33,28.84,17Z"/>
<path class="cls-1" d="M29.61,17.07h0v0Z"/>
<polygon class="cls-1" points="29.6 17.07 29.6 17.07 29.59 17.08 29.6 17.07"/>
</svg>