<svg id="Layer_1" data-name="Layer 1" xmlns="http://www.w3.org/2000/svg" viewBox="0 0 355.88 37.62">
<defs>
<style>.cls-1,.cls-2{fill:none;}.cls-1{stroke-width:2px;}
</style>
</defs>
<line class="cls-1" x1="38.68" y1="37.67" x2="38.68" y2="0.05" stroke="green" transform="translate(-13)"/>
<line class="cls-1" x1="38.68" y1="37.67" x2="38.68" y2="0.05" stroke="red" transform="translate(13)"/>
<line class="cls-1" x1="38.68" y1="37.67" x2="38.68" y2="0.05" stroke="yellow" transform="translate(41)"/>
<line class="cls-1" x1="38.68" y1="37.67" x2="38.68" y2="0.05" stroke="blue" transform="translate(62)"/>
<line class="cls-1" x1="38.68" y1="37.67" x2="38.68" y2="0.05" stroke="blue" transform="translate(82)"/>
<line class="cls-1" x1="38.68" y1="37.67" x2="38.68" y2="0.05" stroke="red" transform="translate(100)"/>
<line class="cls-1" x1="38.68" y1="37.67" x2="38.68" y2="0.05" stroke="blue" transform="translate(118)"/>
<line class="cls-1" x1="38.68" y1="37.67" x2="38.68" y2="0.05" stroke="blue" transform="translate(140)"/>
<line class="cls-1" x1="38.68" y1="37.67" x2="38.68" y2="0.05" stroke="blue" transform="translate(161)"/>
<line class="cls-1" x1="38.68" y1="37.67" x2="38.68" y2="0.05" stroke="yellow" transform="translate(178)"/>
<line class="cls-1" x1="38.68" y1="37.67" x2="38.68" y2="0.05" stroke="blue" transform="translate(198)"/>
<line class="cls-1" x1="38.68" y1="37.67" x2="38.68" y2="0.05" stroke="blue" transform="translate(217)"/>
<line class="cls-1" x1="38.68" y1="37.67" x2="38.68" y2="0.05" stroke="red" transform="translate(239)"/>
<line class="cls-1" x1="38.68" y1="37.67" x2="38.68" y2="0.05" stroke="blue" transform="translate(265)"/>
<line class="cls-1" x1="38.68" y1="37.67" x2="38.68" y2="0.05" stroke="blue" transform="translate(291)"/>
<path class="cls-2" d="M19.19,7.94A18.3,18.3,0,0,0,11.6,6a10.39,10.39,0,0,0-4.13.82A10.89,10.89,0,0,0,1.9,12.79C-.58,21.7,1.81,25,1.84,25A5.29,5.29,0,0,0,5.7,27.72C8.83,28,11.9,25,11.93,25l.25-.25.27.22c2.22,1.87,4.29,2.54,6.18,2,4.06-1.21,6.05-7.67,6.07-7.74A12.24,12.24,0,0,0,19.19,7.94Z"/>
<path d="M19.54,7.25c-4.8-2.21-9-2.58-12.39-1.11a11.55,11.55,0,0,0-6,6.42c-2.6,9.37,0,12.8.05,12.92a6,6,0,0,0,4.42,3,5.07,5.07,0,0,0,.55,0c2.77,0,5.25-2,6-2.74,2.33,1.88,4.56,2.52,6.63,1.9,4.13-1.23,6.19-7,6.55-8.14,0-.36,0-.72.08-1.08A13.19,13.19,0,0,0,19.54,7.25ZM18.63,27c-1.89.56-4-.11-6.18-2l-.27-.22-.25.25s-3.1,3-6.23,2.72A5.29,5.29,0,0,1,1.84,25S-.58,21.7,1.9,12.79A10.89,10.89,0,0,1,7.47,6.84,10.39,10.39,0,0,1,11.6,6a18.3,18.3,0,0,1,7.59,1.92A12.24,12.24,0,0,1,24.7,19.21C24.68,19.28,22.69,25.74,18.63,27Z"/>
<path d="M37.6,25.91a6.19,6.19,0,0,1-5.09,2c-3.08-.42-5.14-3.74-5.21-3.83C24,20.43,28.79,9.62,28.85,9.48c1.34-3.7,8.08-3.08,9.83-2.85V5.86c-2-.27-9-.87-10.54,3.33a36.51,36.51,0,0,0-2.66,9.27c0,.3,0,.59,0,.89,0,0,0,.1-.05.19a6.89,6.89,0,0,0,1.29,5c.09.15,2.27,3.66,5.71,4.13,1.94.27,3.86-.47,5.73-2.21a1.1,1.1,0,0,1,.55-.27v-.79A1.86,1.86,0,0,0,37.6,25.91Z"/>
<path d="M25.48,18.46c0,.36-.07.72-.08,1.08,0-.09,0-.16.05-.19C25.48,19.05,25.47,18.76,25.48,18.46Z"/>
<path d="M51.66,17.52c0-.23-.09-.45-.16-.68s-.9-6.71-5.17-9.71a8.79,8.79,0,0,0-7.18-1.21l-.47-.06v.77l.42.06.07,0,.08,0a8.07,8.07,0,0,1,6.64,1.07c4,2.8,4.84,9.11,4.86,9.23,2,7.13-3.4,10.36-5.11,11.18a.47.47,0,0,1-.53-.12,10.26,10.26,0,0,0-6-2.65h-.19l-.2,0v.79a1,1,0,0,1,.3,0,9.73,9.73,0,0,1,5.58,2.42,1.26,1.26,0,0,0,.9.4,1.2,1.2,0,0,0,.52-.12c1.44-.69,5.33-3,5.91-7.65A16.67,16.67,0,0,1,51.66,17.52Z"/>
<path d="M64.54,24.6A6.69,6.69,0,0,1,60.2,28a7.17,7.17,0,0,1-4.93-1.21c-4.22-4.67-2.5-12-2.49-12.06,3-10.88,11.56-10.24,11.93-10.21h0l1,0V3.77l-1,0c-.49,0-9.62-.49-12.72,10.78a16.87,16.87,0,0,0-.38,3,10.59,10.59,0,0,1,.23,3.69,12,12,0,0,0,2.87,6.11,8.07,8.07,0,0,0,4.47,1.51,6.08,6.08,0,0,0,1.1-.1A7.42,7.42,0,0,0,65.19,25a.52.52,0,0,1,.57-.21V24A1.26,1.26,0,0,0,64.54,24.6Z"/>
<path d="M51.66,17.52a16.67,16.67,0,0,0,.23,3.69A10.59,10.59,0,0,0,51.66,17.52Z"/>
<path d="M75.28,7.84C73,5.37,69.82,4,65.76,3.77v.77c3.83.24,6.85,1.51,8.95,3.81,3.63,4,3.4,9.81,3.36,10.44-1.28,3.16-3,5.19-5.23,6a8.43,8.43,0,0,1-6.63-.66,1.28,1.28,0,0,0-.45-.13v.78l.1,0a9.18,9.18,0,0,0,7.25.7c2.31-.87,4.15-2.92,5.5-6.07.06-.8.13-1.61.22-2.39A15.17,15.17,0,0,0,75.28,7.84Z"/>
<path d="M79.44,24c-.64-3,.84-11.78.86-11.86C81.53,5.54,87,4.56,89.48,4.46V3.71c-2.68.13-8.62,1.23-9.94,8.24,0,.19-.42,2.49-.71,5.12a13.67,13.67,0,0,1,0,1.84l0,.11-.2.44a18.5,18.5,0,0,0,.11,4.79l0,.13.09.08c.8.67,7.59,6.37,10.64,6.38v-.78C87.19,30.05,81.61,25.79,79.44,24Z"/>
<path d="M78.83,18.91a13.67,13.67,0,0,0,0-1.84c-.09.78-.16,1.59-.22,2.39l.2-.44Z"/>
<path d="M95.77,5.45a5.9,5.9,0,0,0-5-1.74,10.1,10.1,0,0,0-1.3,0v.75c.7,0,1.18,0,1.26,0h.06A5.17,5.17,0,0,1,95.2,6c6.13,6.06,4.19,16.59,4.17,16.72C98.46,29.33,89.92,30,89.78,30a1.42,1.42,0,0,1-.3,0v.78h0a1.75,1.75,0,0,0,.4,0c.09,0,9.24-.75,10.24-8,0,0,0-.15.05-.32V14.73A16.3,16.3,0,0,0,95.77,5.45Z"/>
<path d="M109.69,31.05c-5.33-.06-8.34-5-8.74-5.7V13.89c.68-7.57,7.33-8.37,9.37-8.43V4.7c-2.18.09-9.41,1-10.14,9.16v.87a26.28,26.28,0,0,1,0,7.76v3l0,.18c.13.25,3.29,6.12,9.42,6.19h.67v-.76C110,31.07,109.71,31.05,109.69,31.05Z"/>
<path d="M100.18,14.73v7.76A26.28,26.28,0,0,0,100.18,14.73Z"/>
<path d="M111,4.69h0s-.25,0-.63,0v.76h.58c7.67.72,9,8.7,9.1,9L120.54,26c-2.65,4.68-8.33,5.07-10.22,5.07v.76h0c2,0,7.72-.42,10.65-5.06l-.35-13C120.11,11.72,118,5.35,111,4.69Z"/>
<path d="M128.9,34.58c-2.17-1.76-6.53-7.24-7.17-8l-.35-12.77c.81-4.76,2.5-8.07,5-9.86a7.47,7.47,0,0,1,3.49-1.34V1.78A8.26,8.26,0,0,0,126,3.26c-2.72,1.9-4.53,5.4-5.38,10.45v0c.09.38.14.62.14.63l.56,11.82,0,.09-.3.49v0l.07.1c.21.26,5,6.32,7.38,8.27a2.13,2.13,0,0,0,1.34.47h.15v-.76A1.37,1.37,0,0,1,128.9,34.58Z"/>
<path d="M121.32,26.19l-.56-11.82s-.05-.25-.14-.63l.35,13,.3-.49Z"/>
<path d="M139,13.81,139,9.15c0-.07-.63-6.77-7.41-7.36a6.84,6.84,0,0,0-1.63,0v.78a5.9,5.9,0,0,1,1.51,0h0c6.14.52,6.7,6.4,6.72,6.63l.26,17.53c-1.5,5.08-6.22,7.34-8.18,8.08a2.21,2.21,0,0,1-.35.08v.76a2.2,2.2,0,0,0,.62-.12c2-.74,6.55-2.94,8.37-7.79V14.25C138.94,14.09,139,14,139,13.81Z"/>
<path d="M148,33.39c-4.57.15-7.86-4.15-8.37-4.84V14.33c1.8-8.38,7.8-8.85,8.37-8.87l.23,0V4.73l-.15,0H148c-.07,0-6.91.26-9,9.12l.19,13,0,.05a7.72,7.72,0,0,1-.29.85v1.06l.07.1c.15.22,3.8,5.43,9,5.27l.26,0v-.78A.76.76,0,0,1,148,33.39Z"/>
<path d="M139.21,26.83l-.19-13c0,.15-.08.28-.12.44V27.73a7.72,7.72,0,0,0,.29-.85Z"/>
<path d="M156.65,15.46V13.72c0-.07-1-7.64-8.39-9v.78c6.74,1.32,7.59,8,7.62,8.26v10.7c.07,3.39-.76,5.87-2.46,7.37a7.18,7.18,0,0,1-5.16,1.57v.78l.61,0a7.65,7.65,0,0,0,5-1.79,8.77,8.77,0,0,0,2.65-6V16.18C156.59,15.94,156.62,15.7,156.65,15.46Z"/>
<path d="M157.34,30.24v-14c.92-11,9.39-12.84,10.9-13.08V2.36c-1.19.19-10.28,2-11.59,13.1v9a17.62,17.62,0,0,1-.08,2v4.13l.1.11a12.86,12.86,0,0,0,11.57,3.59v-.78A12.39,12.39,0,0,1,157.34,30.24Z"/>
<path d="M156.65,15.46c0,.24-.06.48-.08.72V26.42a17.62,17.62,0,0,0,.08-2Z"/>
<path d="M178.53,14.37c0-.3-1.42-9-10-12l-.09,0h-.21v.78l.13,0c8.14,3,9.39,11.29,9.4,11.33v9.71c.07,5-2.93,8-9.44,9.29l-.09,0v.78l.24,0c5.74-1.17,8.91-3.56,9.79-7.43V16.56C178.33,15.79,178.42,15.06,178.53,14.37Z"/>
<path d="M179.7,28.64A2.19,2.19,0,0,1,179,27V16.59c.94-12.36,8.85-13.44,9.27-13.48l.51.13V2.45l-.39-.1a8.57,8.57,0,0,0-4.52,1.89c-2,1.53-4.49,4.5-5.38,10.13v9.78a11,11,0,0,1-.27,2.63V27a2.93,2.93,0,0,0,.9,2.18,16.9,16.9,0,0,0,9.65,4.64v-.78A16.22,16.22,0,0,1,179.7,28.64Z"/>
<path d="M178.54,14.39v0c-.11.69-.2,1.42-.26,2.19V26.78a11,11,0,0,0,.27-2.63Z"/>
<path d="M198.6,20.12a26,26,0,0,1,.74-4.06c-.18-3.16-1.53-11.52-10.52-13.61v.79c10.28,2.51,9.8,13.52,9.77,14L198.1,30a2,2,0,0,1-1.21,1.75,15.57,15.57,0,0,1-8.07,1.31v.78a14.06,14.06,0,0,0,1.61.1,16.81,16.81,0,0,0,6.77-1.49,2.76,2.76,0,0,0,1.65-2.26,1,1,0,0,1,0-.3Z"/>
<path d="M200.66,31.47a3,3,0,0,1-1.1-1.62l-.19-9.69c1.08-10.64,7.91-14.79,8.74-15.25a5.27,5.27,0,0,1,.56,0V4.18c-.21,0-.42,0-.64,0h-.1l-.09,0c-.07,0-6.17,3.22-8.5,11.88,0,.74,0,1.2,0,1.22L198.86,30c0,.05,0,.11,0,.16a4,4,0,0,0,1.37,1.92,16.1,16.1,0,0,0,8.45,3.1v-.73A15.07,15.07,0,0,1,200.66,31.47Z"/>
<path d="M199.36,17.28s0-.48,0-1.22a26,26,0,0,0-.74,4.06l.2,9.76a1,1,0,0,0,0,.3c0-.05,0-.11,0-.16Z"/>
<path d="M216.71,12.59a11.11,11.11,0,0,0-2.54-5.88,8,8,0,0,0-5.5-2.53V5a7.27,7.27,0,0,1,4.93,2.28c2.77,3,2.5,8,2.49,8.08l.17,14.17a7.7,7.7,0,0,1-.79,1.81,8.72,8.72,0,0,1-6.8,3.18v.73h.15a9.39,9.39,0,0,0,7.23-3.41,7.28,7.28,0,0,0,1-2.32v-.27a1.3,1.3,0,0,1-.32-.74Z"/>
<path d="M226.14,35.07c-2.85-.85-7.43-5.23-8.31-6.1a1.85,1.85,0,0,1-.36-.5V9.05c.68-5.54,6.35-6,8-6h.44l.42,0V2.38l-.37,0c-.13,0-8.39-.45-9.25,6.67v3.58a15,15,0,0,1,.15,2.74L217,29.21a2,2,0,0,0,.26.3c1.28,1.26,5.68,5.42,8.63,6.3a1.93,1.93,0,0,0,.41.06v-.78A1.23,1.23,0,0,1,226.14,35.07Z"/>
<path d="M216.71,12.59V28.47a1.3,1.3,0,0,0,.32.74l-.17-13.88A15,15,0,0,0,216.71,12.59Z"/>
<path d="M235.86,14c-.34-3.59-2-10.93-9.53-11.65v.77c9.19.93,8.87,12.31,8.85,12.8l-.2,9.54c-1.44,5.35-6.49,8.61-8,9.48a1.1,1.1,0,0,1-.64.12v.78h.11a1.82,1.82,0,0,0,.91-.24c1.57-.9,6.73-4.24,8.32-9.85V16.07A20.26,20.26,0,0,1,235.86,14Z"/>
<path d="M236.44,26.05v-10c.44-10.29,8-10.48,8.35-10.48s.65,0,1,.05V4.88l-1,0h0c-.08,0-7.56.11-8.93,9.2a17.76,17.76,0,0,1,.09,2l-.22,9.62-.06.19v.53l.08.1c.16.21,3.84,5,9.79,5h.22v-.77C240.5,30.8,237,26.74,236.44,26.05Z"/>
<path d="M236,16a17.76,17.76,0,0,0-.09-2,20.26,20.26,0,0,0-.19,2v9.72l.06-.19Z"/>
<path d="M255.85,13.79a8.81,8.81,0,0,0-2.37-5.74c-1.76-1.87-4.36-2.92-7.72-3.17v.77c3.13.24,5.54,1.21,7.16,2.92a8.15,8.15,0,0,1,2.16,5.36V24.1c-1,5.36-9.07,6.57-9.12,6.58h-.21v.77h.29c.34,0,8.27-1.24,9.68-6.8V14.32Z"/>
<path d="M256.5,24.83V14.4c2.28-10.89,10.08-9.56,10.41-9.5h0l.32,0V4.17l-.24,0c-.52-.09-8.64-1.18-11.17,9.65V24.16c0,.17-.08.32-.12.48v.51l.11.12c.27.25,6.22,6,11.42,6.19v-.77C262.75,30.49,257.35,25.63,256.5,24.83Z"/>
<path d="M255.85,13.94v-.15l-.12.53V24.64c0-.16.09-.31.12-.48Z"/>
<path d="M277.63,20.43a19.13,19.13,0,0,1-.06-3.37l-.29-5a3.91,3.91,0,0,0-.22-1.14c-.64-1.83-2.87-6.12-9.8-6.77v.77c6.43.64,8.49,4.57,9.08,6.25a3.64,3.64,0,0,1,.18.94l.48,8.28C275.42,30,268.26,30.67,268,30.69a5.3,5.3,0,0,1-.69,0v.77l.27,0,.48,0c.08,0,7.94-.72,9.71-10.8a.44.44,0,0,1-.05-.09Z"/>
<path d="M288.63,23.58a1.52,1.52,0,0,0-1,.42A4.17,4.17,0,0,1,284,25.28c-3-.5-5.33-4.45-5.65-5A20.69,20.69,0,0,1,283.47,5a.44.44,0,0,1,.33-.14h6.94V4.06H283.8a1.27,1.27,0,0,0-.91.4,22,22,0,0,0-5.32,12.6l.2,3.39a2.09,2.09,0,0,0,0,.21c.39.69,2.85,4.82,6.18,5.38a5,5,0,0,0,4.27-1.48.84.84,0,0,1,.49-.22l2.08-.09v-.77Z"/>
<path d="M277.57,17.06a19.13,19.13,0,0,0,.06,3.37l0,.14a.44.44,0,0,0,.05.09,2.09,2.09,0,0,1,0-.21Z"/>
<path d="M303.7,19.64v-.05c.06-.81.15-1.58.25-2.31a32.4,32.4,0,0,0-.32-3.3,14.14,14.14,0,0,0-4.27-9.41,1.77,1.77,0,0,0-1.16-.44l-7-.07h-.43v.77h.42l7,.07a1,1,0,0,1,.64.24,13.57,13.57,0,0,1,4,8.91c.91,6-.16,8.76-1.21,10a3.13,3.13,0,0,1-2.12,1.24h-.2l-.11.17q-1.79,2.72-3.32,2.57c-1.53-.17-2.6-2.58-3-3.61a1.59,1.59,0,0,0-1.49-1h-.07l-.61,0v.77l.64,0a.84.84,0,0,1,.81.52c.54,1.45,1.74,3.9,3.63,4.1l.26,0c1.2,0,2.44-.94,3.68-2.78a4,4,0,0,0,2.45-1.48,8,8,0,0,0,1.64-4.27c-.09-.35-.13-.59-.14-.64Z"/>
<path d="M314.09,25.07a1.68,1.68,0,0,0-1.08.4q-2.42,2-4.31,1.37c-2.93-1.05-4.11-6.67-4.23-7.24.91-12,6.69-13.75,7.84-14h0a1,1,0,0,1,.25,0l4.64.2V5l-4.61-.2a2,2,0,0,0-.43,0c-1.17.24-6.73,1.92-8.21,12.41a18.59,18.59,0,0,1-.1,3c.4,1.7,1.71,6.2,4.59,7.23,1.53.55,3.23.05,5.06-1.5a1,1,0,0,1,.59-.22h3.11v-.77Z"/>
<path d="M304,17.28c-.1.73-.19,1.5-.25,2.31v.1s.05.29.14.64A18.59,18.59,0,0,0,304,17.28Z"/>
<path class="cls-2" d="M348,6.52H337.86c-.88.75-7.06,6.27-6.56,12.37,0,0,.92,5.27,3.79,7.22a4.09,4.09,0,0,0,3.26.6.78.78,0,0,0,.35-.18,6.52,6.52,0,0,1,4.09-1.44,8.73,8.73,0,0,1,4.82,1.62.91.91,0,0,0,.41.14c.89,0,3.94.07,5.71-1.9,1.26-1.4,1.66-3.53,1.19-6.33C354.91,18.47,354.56,9.54,348,6.52Z"/>
<path d="M330.52,18.23a15.27,15.27,0,0,0-1.28-3.7L325.52,6a1.15,1.15,0,0,0-1-.68L317.2,5V5.8l7.29.31a.37.37,0,0,1,.33.22l3.72,8.53c1.47,3,1.78,5.47.93,7.28a4.91,4.91,0,0,1-3,2.48l-.2.05-.07.18c-.7,1.81-1.59,2.82-2.62,3-1.58.27-3.22-1.4-3.86-2.13a1.91,1.91,0,0,0-1.44-.65H317.2v.77h1.11a1.15,1.15,0,0,1,.86.38c.82.94,2.38,2.43,4.08,2.43a2.77,2.77,0,0,0,.49,0c1.28-.22,2.33-1.33,3.14-3.3a5.58,5.58,0,0,0,3.28-2.83,6.12,6.12,0,0,0,.53-2.75c-.1-.42-.15-.7-.16-.75C330.51,18.73,330.52,18.48,330.52,18.23Z"/>
<path d="M355.68,18.54c0-.39-.37-9.57-7.4-12.76l-10.7,0-.1.08c-.3.24-7,5.77-7,12.4a9,9,0,0,1,.17,1.5c.38,1.6,1.48,5.33,4,7a4.82,4.82,0,0,0,3.85.73,1.74,1.74,0,0,0,.68-.34c.79-.66,3.73-2.59,8,.22a1.62,1.62,0,0,0,.78.27h.57c1.36,0,4-.26,5.77-2.17C355.73,23.88,356.19,21.54,355.68,18.54ZM353.73,25c-1.77,2-4.82,1.95-5.71,1.9a.91.91,0,0,1-.41-.14,8.73,8.73,0,0,0-4.82-1.62,6.52,6.52,0,0,0-4.09,1.44.78.78,0,0,1-.35.18,4.09,4.09,0,0,1-3.26-.6c-2.87-1.95-3.79-7.2-3.79-7.22-.5-6.1,5.68-11.62,6.56-12.37H348c6.53,3,6.88,12,6.89,12.1C355.39,21.42,355,23.55,353.73,25Z"/>
<path d="M330.53,19c0,.05.06.33.16.75a9,9,0,0,0-.17-1.5C330.52,18.48,330.51,18.73,330.53,19Z"/></svg>